<?xml version="1.0" encoding="utf-8"?>
<!-- Generator: Adobe Illustrator 21.1.0, SVG Export Plug-In . SVG Version: 6.00 Build 0)  -->
<svg version="1.1" id="Group_11" xmlns="http://www.w3.org/2000/svg" xmlns:xlink="http://www.w3.org/1999/xlink" x="0px" y="0px"
	 viewBox="0 0 371 317" style="enable-background:new 0 0 371 317;" xml:space="preserve">
<style type="text/css">
	.st0{fill:#232939;}
	.st1{fill:#A24FFC;}
	.st2{fill:#F93641;}
	.st3{fill:#12CF7C;}
	.st4{fill:#FDFCFD;}
	.st5{fill:#F7EAFC;}
</style>
<path id="NoPath" class="st0" d="M5,0h361c2.8,0,5,2.2,5,5v307c0,2.8-2.2,5-5,5H5c-2.8,0-5-2.2-5-5V5C0,2.2,2.2,0,5,0z"/>
<g>
	<path class="st1" d="M213.9,116.8c0,4.1,0.2,8.3,0.1,12.4c0,1.8,0.3,2.6,2.4,2.7c4.2,0.3,8.5,0.9,12.7,1.6
		c6.1,0.9,10.9,5.6,12,11.7c2.8,15.3,3.3,30.6,1.5,46c-0.4,3.6-0.8,7.2-1.5,10.8c-1.2,6.6-6,11.1-12.6,12c-22.9,3.2-45.8,4-68.9,1.9
		c-5.7-0.5-11.4-1.2-17.1-1.9c-6.6-0.8-11.6-5.4-12.7-11.9c-2.4-13.7-2.8-27.4-1.8-41.2c0.4-5.2,0.9-10.4,1.9-15.6
		c1.1-6.2,6.2-11,12.6-11.8c4.1-0.5,8.2-1.1,12.3-1.5c1.4-0.1,1.7-0.7,1.7-2c0-4.3,0-8.7,0.1-13c2.1,0,4.1,0,6.2-0.1c0,4,0.1,8,0,12
		c-0.1,1.9,0.6,2.4,2.4,2.3c10.8-0.7,21.5-1,32.3-0.5c2.7,0.1,5.3,0.3,8,0.4c2.6,0.1,2.6,0.1,2.6-2.6c0-3.8,0-7.7,0.1-11.5
		C209.9,116.8,211.9,116.8,213.9,116.8z M162.3,155.8c-1.7,0-3.4,0-5.2,0c-0.1,0-0.3,0-0.4,0c0-1.5,0-2.9,0-4.4
		c0-0.5,0.1-1.3-0.6-1.4c-1.6-0.2-3.3-0.5-4.7,0.1c-0.9,0.4-0.3,1.9-0.4,2.9c-0.4,2.1,0.5,2.9,2.6,2.6c1-0.1,2.1,0,3.1,0
		c0,0.7,0.1,1.4,0.1,2.1c0,0.6,0,1.1,0,1.7c0,0.6-0.1,1.1-0.1,1.7c-0.6,0-1.3,0-1.9,0c-3.9,0-3.8,0-3.9,3.9
		c-0.1,2.1,0.8,2.5,2.6,2.4c2.9-0.1,3.2-0.3,3.2-2.5c0-1.3,0-2.5-0.1-3.8c0.3,0,0.6,0,0.9,0c1.4,0,2.8,0,4.2,0c0.3,0,0.6,0,0.9,0
		c0,1.6-0.1,3.2-0.1,4.8c0,0.7,0,1.5,1,1.5c1.2,0,2.5,0.2,3.7-0.3c0.5-0.2,0.8-0.4,0.9-0.9c0.8-3.9,0.1-4.9-3.9-4.9
		c-0.6,0-1.1,0-1.7,0c-0.1-0.7-0.1-1.4-0.2-2c0-0.5,0-0.9,0-1.4c0.1-0.1,0.1-0.2,0-0.4C162.5,156.8,162.5,156.3,162.3,155.8
		c1.8-0.4,3.8,0.4,5.7-0.5c0-1.3,0.1-2.6,0.1-4c0.1-1.1-0.4-1.5-1.5-1.5c-5,0.1-4.1-0.6-4.1,4c0,0.5,0.1,1,0.1,1.5
		C162.5,155.4,162.4,155.6,162.3,155.8z M213.8,152c-0.1,1.1-0.2,2.2,0,3.2c-0.1,0.2-0.3,0.4-0.4,0.5c-1.8-0.3-3.7-0.2-5.5-0.1
		c0-0.6,0.1-1.3,0.1-1.9c0-4.3-0.3-4.6-4.6-4c-0.5,0.1-1.1,0.1-1.1,0.7c0,1.7-0.7,3.7,0.3,5.1c0.7,1.1,2.6,0.3,4,0.4
		c0.5,0,0.9-0.2,1.4-0.4c0,1.6,0.1,3.1,0.1,4.7c0,0.3-0.1,0.6-0.1,0.8c-0.6,0-1.3,0-1.9,0c-4.2,0-4.1,0-3.9,4.3
		c0.1,1.2,0.5,1.6,1.6,1.6c5.1-0.1,4,0.6,4.2-4c0-0.6,0-1.3,0-1.9c0.1,0,0.3,0,0.4,0c0.3,0,0.6,0,0.9,0c0.1,0,0.2,0,0.4,0
		c1.3,0.1,2.6,0.2,3.8-0.1c0.1,1.6,0.1,3.2,0.2,4.8c0,0.6-0.1,1.4,0.8,1.5c1.3,0.1,2.6,0.1,3.9-0.1c0.7-0.1,1.2-0.7,1.1-1.5
		c-0.2-1.5,0.6-3-0.5-4.4c-0.1-0.2-0.7-0.1-1-0.1c-0.9,0-1.8-0.1-2.7,0c-0.9,0.1-1.4-0.3-1.6-1.2c0.2-1,0.2-2.1,0-3.1
		c0.1-1.1,0.8-1.2,1.7-1.3c1.3-0.1,2.6,0.4,3.9-0.3c0.3-6.6,1-5.4-4.9-5.3C213,150.4,213.7,151.3,213.8,152z M172.6,195.2
		c1,0.4,1.2-0.1,1.2-1c0-1.5,0-3,0-4.5c8.5,0,16.9,0,25.4,0c2.9,0,2.9,0,2.9,2.8c0,1.9-0.4,3.5,2.7,3.1c3-0.3,3.1,0.2,3.1-3
		c0-0.1,0-0.3,0-0.4c0.3-2-0.4-2.8-2.5-2.6c-1.1,0.1-2.4,0.3-3.5-0.3c0-1.4,0-2.8,0-4.2c0.2-0.3,0.5-0.6,0-0.8
		c-0.3-0.1-0.6-0.1-0.9-0.2c-8.7,0-17.3-0.1-26-0.2c-1.2,0-1.4,0.6-1.2,1.6c0,0.8,0,1.7,0,2.5c0,0.6,0,1.1,0,1.7
		c-1.4,0-2.8,0-4.2-0.1c-1.3-0.1-1.7,0.4-1.7,1.7c-0.1,3.8-0.1,3.8-4,4c-0.7,0-1.5-0.1-1.7,1c-0.8,3.9-0.1,4.8,3.8,4.8
		c1.6,0,2-0.5,2-2c0-1.3-0.8-2.8,0.7-3.8C170.1,195.2,171.4,195.2,172.6,195.2z"/>
	<path class="st2" d="M162.5,116.8c-2.1,0-4.1,0-6.2,0.1c-5.1-1.7-9.1-4.7-11-10c-2.1-5.9,0-13.2,5-16.9c5.6-4.1,13.3-4.2,18.5-0.1
		c5.3,4.2,7.3,11.3,4.9,17.3C171.8,112.4,167.9,115.5,162.5,116.8z"/>
	<path class="st3" d="M213.9,116.8c-2,0-4,0-6.1,0c-7.9-2.5-12.1-7.8-12.1-15.1c0-7.3,5.4-13.5,12.7-14.7
		c7.2-1.2,14.5,3.2,16.8,10.2c2.3,7-0.8,14.7-7.3,18.1C216.7,115.9,215.3,116.3,213.9,116.8z"/>
	<path class="st4" d="M201.1,184.1c0.3,0.1,0.6,0.1,0.9,0.1c0,0.3,0,0.6,0,0.8c0,1.4,0,2.8,0,4.2c-7.9,0-15.8,0-23.7,0
		c-1.6,0-3.2-0.1-4.4-1.3c0-0.8,0-1.7,0-2.5c1.1-1.2,2.4-1.3,3.9-1.3c4.2,0.1,8.3,0.1,12.5,0C193.9,184.2,197.5,184.5,201.1,184.1z"
		/>
	<path class="st5" d="M173.9,188.1c1.2,1.2,2.8,1.3,4.4,1.3c7.9-0.1,15.8,0,23.7,0c1.1,0.6,2.4,0.5,3.5,0.3c2.1-0.2,2.8,0.6,2.5,2.6
		c0,0.1,0,0.3,0,0.4c0,3.1-0.1,2.6-3.1,3c-3.1,0.3-2.7-1.3-2.7-3.1c0-2.8,0-2.8-2.9-2.8c-8.5,0-16.9,0-25.4,0c0,0,0,0,0,0
		C173.9,189.2,173.9,188.6,173.9,188.1z"/>
	<path class="st5" d="M168.8,195.2c-1.5,1-0.7,2.6-0.7,3.8c0,1.5-0.4,2.1-2,2c-3.9,0-4.6-0.9-3.8-4.8c0.2-1.1,1-1,1.7-1
		c3.8-0.1,3.9-0.1,4-4c0-1.3,0.4-1.8,1.7-1.7c1.4,0.1,2.8,0,4.2,0.1c0,0,0,0,0,0c0,1.5,0,3,0,4.5c0,0.9-0.2,1.4-1.2,1
		c0.1-0.6,0.3-1.2,0.4-1.8c0.3-2.9-0.3-3.5-3.2-3.3c-0.9,0.1-1.4,0.4-1.4,1.4C168.4,192.8,168.5,194,168.8,195.2z"/>
	<path class="st5" d="M213.5,160c0.2,0.9,0.6,1.3,1.6,1.2c0.9-0.1,1.8,0,2.7,0c0.3,0,0.9-0.1,1,0.1c1.1,1.3,0.3,2.9,0.5,4.4
		c0.1,0.8-0.3,1.4-1.1,1.5c-1.3,0.2-2.6,0.2-3.9,0.1c-0.8-0.1-0.7-0.9-0.8-1.5c-0.1-1.6-0.1-3.2-0.2-4.8
		C213.4,160.7,213.5,160.4,213.5,160z"/>
	<path class="st5" d="M207.9,155.7c-0.5,0.1-0.9,0.4-1.4,0.4c-1.4-0.1-3.2,0.7-4-0.4c-1-1.4-0.3-3.4-0.3-5.1c0-0.7,0.6-0.6,1.1-0.7
		c4.3-0.6,4.6-0.3,4.6,4C207.9,154.5,207.9,155.1,207.9,155.7C207.9,155.7,207.9,155.7,207.9,155.7z"/>
	<path class="st5" d="M156.6,161.2c0,1.3,0.1,2.5,0.1,3.8c0,2.3-0.3,2.4-3.2,2.5c-1.8,0.1-2.7-0.3-2.6-2.4c0.1-3.9,0-3.9,3.9-3.9
		C155.4,161.2,156,161.2,156.6,161.2C156.7,161.2,156.6,161.2,156.6,161.2z"/>
	<path class="st5" d="M156.7,155.7c-1,0-2.1-0.2-3.1,0c-2.1,0.3-3-0.5-2.6-2.6c0.2-1-0.5-2.5,0.4-2.9c1.4-0.6,3.2-0.3,4.7-0.1
		c0.7,0.1,0.6,0.8,0.6,1.4C156.7,152.8,156.7,154.3,156.7,155.7C156.7,155.7,156.7,155.7,156.7,155.7z"/>
	<path class="st5" d="M207.9,161.2c0,0.6,0.1,1.3,0,1.9c-0.1,4.6,1,3.9-4.2,4c-1.2,0-1.6-0.4-1.6-1.6c-0.2-4.3-0.3-4.3,3.9-4.3
		C206.7,161.2,207.3,161.2,207.9,161.2C207.9,161.2,207.9,161.2,207.9,161.2z"/>
	<path class="st5" d="M162.5,161.2c0.6,0,1.1,0,1.7,0c3.9,0,4.7,1,3.9,4.9c-0.1,0.6-0.4,0.7-0.9,0.9c-1.2,0.5-2.5,0.3-3.7,0.3
		c-1,0-1-0.8-1-1.5C162.5,164.3,162.5,162.7,162.5,161.2C162.6,161.1,162.5,161.2,162.5,161.2z"/>
	<path class="st4" d="M213.5,160c0,0.3-0.1,0.7-0.1,1c-1.3,0.3-2.6,0.2-3.8,0.1c-0.1,0-0.2,0-0.4,0c-0.3,0-0.6,0-0.9,0
		c-0.1-0.3-0.2-0.5-0.3-0.8c0-1.6-0.1-3.1-0.1-4.7c0,0,0,0,0,0c1.8-0.1,3.7-0.2,5.5,0.1c0,0.4,0.1,0.7,0.1,1.1
		C213.7,157.9,213.7,159,213.5,160z"/>
	<path class="st4" d="M214.2,150c5.9-0.1,5.2-1.3,4.9,5.3c-1.8,0-3.6,0-5.4,0c-0.3-1.1-0.1-2.2,0-3.2
		C213.8,151.3,213.8,150.6,214.2,150z"/>
	<path class="st4" d="M162.6,155.3c0-0.5-0.1-1-0.1-1.5c0.1-4.6-0.9-3.9,4.1-4c1.1,0,1.5,0.4,1.5,1.5c-0.1,1.3-0.1,2.6-0.1,4
		C166.1,155.3,164.4,155.3,162.6,155.3z"/>
	<path class="st4" d="M157.1,155.7c1.7,0,3.4,0,5.2,0c0,0,0,0,0,0c0.2,0.6,0.2,1.1,0.1,1.7c-0.1,0.1-0.1,0.2,0,0.4
		c0,0.5,0,0.9,0,1.4c-0.2,0.7-0.4,1.3-0.6,2c-1.4,0-2.8,0-4.2,0c-0.1-0.6-0.3-1.2-0.7-1.6c0-0.6,0-1.1,0-1.7
		C157.3,157.2,157,156.4,157.1,155.7z"/>
	<path class="st4" d="M168.8,195.2c-0.3-1.2-0.4-2.5-0.4-3.7c0-1,0.5-1.3,1.4-1.4c2.8-0.2,3.5,0.4,3.2,3.3c-0.1,0.6-0.3,1.2-0.4,1.8
		C171.4,195.2,170.1,195.2,168.8,195.2z"/>
	<path class="st5" d="M201.1,184.1c-3.6,0.4-7.2,0.1-10.8,0.2c-4.2,0.1-8.3,0.1-12.5,0c-1.5,0-2.8,0.1-3.9,1.3c-0.2-1,0-1.6,1.2-1.6
		C183.8,184,192.4,184,201.1,184.1z"/>
	<path class="st5" d="M213.8,155.3c1.8,0,3.6,0,5.4,0c-1.2,0.8-2.6,0.3-3.9,0.3c-0.9,0.1-1.7,0.2-1.7,1.3c-0.1-0.4-0.1-0.7-0.1-1.1
		C213.5,155.6,213.6,155.4,213.8,155.3z"/>
	<path class="st5" d="M162.2,155.7C162.2,155.7,162.3,155.8,162.2,155.7c0.1-0.1,0.2-0.3,0.3-0.4c1.8,0,3.6,0,5.3,0
		C166.1,156.1,164.1,155.3,162.2,155.7z"/>
	<path class="st5" d="M161.7,161.2c0.2-0.7,0.4-1.3,0.6-2c0.1,0.7,0.1,1.4,0.2,2c0,0,0,0,0,0C162.3,161.1,162,161.1,161.7,161.2z"/>
	<path class="st5" d="M214.2,150c-0.4,0.6-0.4,1.3-0.4,2C213.7,151.3,213,150.4,214.2,150z"/>
	<path class="st5" d="M156.8,159.5c0.4,0.5,0.7,1,0.7,1.6c-0.3,0-0.6,0-0.9,0c0,0,0,0,0,0C156.7,160.6,156.7,160.1,156.8,159.5z"/>
	<path class="st5" d="M157.1,155.7c0,0.7,0.2,1.4-0.3,2.1c0-0.7-0.1-1.4-0.1-2.1c0,0,0,0,0,0C156.8,155.7,156.9,155.7,157.1,155.7z"
		/>
	<path class="st5" d="M202,185.1c0-0.3,0-0.6,0-0.8C202.5,184.5,202.2,184.8,202,185.1z"/>
	<path class="st5" d="M208,160.3c0.1,0.3,0.2,0.5,0.3,0.8c-0.1,0-0.3,0-0.4,0c0,0,0,0,0,0C207.9,160.9,208,160.6,208,160.3z"/>
	<path class="st5" d="M162.3,157.8c-0.1-0.1-0.1-0.2,0-0.4C162.4,157.5,162.4,157.7,162.3,157.8z"/>
	<path class="st5" d="M209.2,161.2c0.1,0,0.2,0,0.4,0C209.4,161.2,209.3,161.2,209.2,161.2z"/>
</g>
</svg>
