<svg id="Group_12" data-name="Group 12" xmlns="http://www.w3.org/2000/svg" viewBox="1380 1493 371 317">
  <defs>
    <style>
      .cls-1 {
        fill: #1d1e30;
      }

      .cls-2 {
        fill: #fff;
      }

      .cls-3 {
        fill: #ff2d55;
      }
    </style>
  </defs>
  <rect id="Rectangle_7" data-name="Rectangle 7" class="cls-1" width="371" height="317" rx="5" transform="translate(1380 1493)"/>
  <g id="logo_1_" data-name="logo (1)" transform="translate(1501.8 1589.8)">
    <g id="Group_2" data-name="Group 2" transform="translate(18 15)">
      <g id="Group_1" data-name="Group 1">
        <circle id="Ellipse_7" data-name="Ellipse 7" class="cls-2" cx="46.2" cy="46.2" r="46.2"/>
      </g>
    </g>
    <g id="Group_4" data-name="Group 4" transform="translate(38.79 33.336)">
      <g id="Group_3" data-name="Group 3">
        <path id="Path_14" data-name="Path 14" class="cls-3" d="M58.965,81.841c-15.448,0-26.565-11.406-26.565-27C32.4,37.229,45.971,27.7,58.821,27.7c14.582,0,21.945,8.951,23.966,17.325l.289,1.3L71.381,50.078l-.433-1.444c-.722-2.6-3.176-8.807-12.128-8.807-6.641,0-13.716,4.62-13.716,15.015,0,10.106,7.219,14.726,13.86,14.726,9.1,0,11.839-6.93,12.416-8.951l.433-1.444,11.694,3.465-.289,1.3C81.054,72.312,73.547,81.841,58.965,81.841Z" transform="translate(-32.4 -27.7)"/>
      </g>
    </g>
  </g>
</svg>
