<?xml version="1.0" encoding="utf-8"?>
<!-- Generator: Adobe Illustrator 21.1.0, SVG Export Plug-In . SVG Version: 6.00 Build 0)  -->
<svg version="1.1" id="Group_13" xmlns="http://www.w3.org/2000/svg" xmlns:xlink="http://www.w3.org/1999/xlink" x="0px" y="0px"
	 viewBox="0 0 371 317" style="enable-background:new 0 0 371 317;" xml:space="preserve">
<style type="text/css">
	.st0{fill:#F1C40F;}
	.st1{enable-background:new    ;}
	.st2{fill:#555555;}
</style>
<g id="Group_10">
	<g id="Rectangle_8">
		<path class="st0" d="M5,0h361c2.8,0,5,2.2,5,5v307c0,2.8-2.2,5-5,5H5c-2.8,0-5-2.2-5-5V5C0,2.2,2.2,0,5,0z"/>
	</g>
	<g class="st1">
		<path class="st2" d="M84.5,175.5c0.3-0.2,0.8-0.6,1.5-1c0.7-0.5,1.6-1,2.6-1.7s2-1.4,3.2-2.2c1.1-0.8,2.3-1.6,3.4-2.4l0.3-2.4
			c0.5-4.9,1.3-9.4,2.5-13.6c1.1-4.1,2.5-7.8,4.1-11.1c1.6-3.3,3.3-6.2,5.1-8.7c1.8-2.5,3.7-4.6,5.6-6.2c1.9-1.7,3.8-2.9,5.7-3.8
			s3.6-1.2,5.2-1.2c1.2,0,2.3,0.2,3.2,0.7s1.8,1.1,2.5,2s1.3,2,1.7,3.3c0.4,1.3,0.6,2.9,0.6,4.7c0,2.2-0.3,4.5-1,6.9
			c-0.7,2.4-1.6,4.8-2.8,7.2c-1.2,2.4-2.7,4.9-4.3,7.3s-3.6,4.8-5.6,7c-2.1,2.3-4.3,4.4-6.6,6.4c-2.4,2-4.8,3.8-7.4,5.4
			c0,1.4-0.1,2.6-0.1,3.4s-0.1,1.5-0.1,1.9c0,0.4,0,0.7,0,0.9s0,0.3,0,0.4c0,0.2,0,0.4,0.1,0.6c0.1,0.2,0.2,0.3,0.5,0.4
			s0.6,0.2,1,0.2s1,0.1,1.7,0.1c1.1,0,2.5-0.3,4.3-0.8l11.8-3.4c0.2,0,0.4-0.1,0.6-0.1c0.2,0,0.4,0,0.5,0c0.6,0,1.1,0.1,1.5,0.3
			s0.8,0.5,1.1,0.9s0.5,0.8,0.6,1.3s0.2,1,0.2,1.5c0,0.5-0.1,0.9-0.2,1.4s-0.4,0.9-0.6,1.2s-0.6,0.7-1.1,1s-0.9,0.5-1.5,0.6
			c-2.3,0.9-4.6,1.7-7,2.5c-1,0.3-2.1,0.6-3.3,0.9c-1.1,0.3-2.3,0.6-3.5,0.8c-1.2,0.2-2.4,0.4-3.6,0.5c-1.2,0.1-2.4,0.2-3.5,0.2
			c-1.7,0-3.2-0.3-4.3-0.9c-1.1-0.6-2-1.4-2.6-2.4c-0.6-1-1.1-2.2-1.4-3.5c-0.3-1.3-0.4-2.8-0.4-4.3c-2,1.5-3.7,2.6-5.1,3.5
			s-2.3,1.3-2.7,1.3c-0.4,0-0.8-0.1-1.1-0.4c-0.4-0.3-0.7-0.6-1-1.1c-0.3-0.4-0.5-0.9-0.7-1.5s-0.3-1.1-0.3-1.6
			c0-0.4,0.1-0.9,0.2-1.3S84.1,175.8,84.5,175.5z M104.5,163.2c1.2-1.2,2.4-2.6,3.7-4.1s2.6-3,3.9-4.6c1.3-1.6,2.5-3.2,3.7-4.9
			c1.2-1.7,2.3-3.3,3.2-5s1.7-3.3,2.4-4.9c0.6-1.6,1.1-3.1,1.2-4.5c0.1-0.5,0.1-0.9,0.1-1.4c0-0.4,0-0.8,0-1.2
			c0-1.3-0.2-2.3-0.5-2.9c-0.4-0.6-0.9-0.9-1.5-0.9c-0.8,0-1.6,0.4-2.6,1.2c-1,0.8-2.1,1.9-3.2,3.4c-1.1,1.5-2.2,3.2-3.3,5.3
			s-2.2,4.4-3.1,6.9c-1,2.5-1.8,5.3-2.5,8.3C105.3,156.8,104.8,159.9,104.5,163.2z"/>
		<path class="st2" d="M151,160.7c0.7,1.4,1.2,2.8,1.5,4.3c0.3,1.5,0.5,3,0.5,4.3s-0.2,2.8-0.5,4.2c-0.3,1.4-0.7,2.8-1.3,4.1
			c-0.6,1.3-1.3,2.5-2.1,3.7c-0.8,1.1-1.8,2.1-2.8,3c-1.1,0.8-2.2,1.5-3.5,2s-2.6,0.7-4,0.7c-2.1,0-3.8-0.5-5.3-1.4
			c-1.5-0.9-2.7-2.1-3.6-3.5c-0.9-1.5-1.6-3.1-2.1-4.9c-0.4-1.8-0.7-3.7-0.7-5.6c0-2.6,0.4-5,1.2-7.2s1.9-4.2,3.3-5.8s3.2-3,5.3-3.9
			c2.1-0.9,4.4-1.4,7-1.4c2.2,0,4.3,0.3,6.3,1c1.9,0.7,3.8,1.6,5.5,2.8c1.7,1.2,3.3,2.5,4.7,4c1.5,1.5,2.8,3,4.1,4.6l-0.7,5
			c-0.6-0.8-1.5-1.8-2.6-2.7c-1.1-1-2.2-1.9-3.4-2.9c-1.2-0.9-2.4-1.8-3.6-2.7c-1.2-0.8-2.2-1.5-3-2.1L151,160.7z M140.1,180.3
			c0.8,0,1.6-0.4,2.3-1.2c0.8-0.8,1.4-1.8,2-3.1s1-2.6,1.4-4.1c0.3-1.5,0.5-2.9,0.5-4.3c0-1.1-0.1-2.1-0.2-3
			c-0.2-0.9-0.4-1.7-0.7-2.4c-0.3-0.7-0.8-1.2-1.3-1.6c-0.5-0.4-1.1-0.6-1.9-0.6c-1,0-1.9,0.4-2.7,1.2c-0.9,0.8-1.6,1.9-2.3,3.1
			c-0.7,1.3-1.2,2.7-1.5,4.2c-0.4,1.5-0.6,3-0.6,4.5c0,1,0.1,1.9,0.3,2.8c0.2,0.9,0.5,1.6,0.9,2.3c0.4,0.6,0.9,1.2,1.6,1.5
			C138.4,180.1,139.2,180.3,140.1,180.3z"/>
		<path class="st2" d="M181.7,160.7c0.7,1.4,1.2,2.8,1.5,4.3c0.3,1.5,0.5,3,0.5,4.3s-0.2,2.8-0.5,4.2c-0.3,1.4-0.7,2.8-1.3,4.1
			c-0.6,1.3-1.3,2.5-2.1,3.7c-0.8,1.1-1.8,2.1-2.8,3c-1.1,0.8-2.2,1.5-3.5,2s-2.6,0.7-4,0.7c-2.1,0-3.8-0.5-5.3-1.4
			c-1.5-0.9-2.7-2.1-3.6-3.5c-0.9-1.5-1.6-3.1-2.1-4.9c-0.4-1.8-0.7-3.7-0.7-5.6c0-2.6,0.4-5,1.2-7.2s1.9-4.2,3.3-5.8s3.2-3,5.3-3.9
			c2.1-0.9,4.4-1.4,7-1.4c2.2,0,4.3,0.3,6.3,1c1.9,0.7,3.8,1.6,5.5,2.8c1.7,1.2,3.3,2.5,4.7,4s2.8,3,4.1,4.6l-0.7,5
			c-0.6-0.8-1.5-1.8-2.6-2.7s-2.2-1.9-3.4-2.9s-2.4-1.8-3.6-2.7c-1.2-0.8-2.2-1.5-3-2.1L181.7,160.7z M170.8,180.3
			c0.8,0,1.6-0.4,2.3-1.2c0.8-0.8,1.4-1.8,2-3.1s1-2.6,1.4-4.1c0.3-1.5,0.5-2.9,0.5-4.3c0-1.1-0.1-2.1-0.2-3
			c-0.2-0.9-0.4-1.7-0.7-2.4c-0.3-0.7-0.8-1.2-1.3-1.6c-0.5-0.4-1.1-0.6-1.9-0.6c-1,0-1.9,0.4-2.7,1.2c-0.9,0.8-1.6,1.9-2.3,3.1
			c-0.7,1.3-1.2,2.7-1.5,4.2c-0.4,1.5-0.6,3-0.6,4.5c0,1,0.1,1.9,0.3,2.8c0.2,0.9,0.5,1.6,0.9,2.3c0.4,0.6,0.9,1.2,1.6,1.5
			C169.1,180.1,169.9,180.3,170.8,180.3z"/>
		<path class="st2" d="M205.1,180.7c2.4,0,4.5-0.2,6.5-0.7s3.7-1.1,5.3-1.9s3-1.7,4.3-2.8s2.4-2.2,3.5-3.4l0.4,8.1
			c-0.8,0.9-1.7,1.8-2.7,2.7s-2.2,1.6-3.5,2.3s-2.6,1.2-4,1.5s-2.8,0.6-4.1,0.6c-0.2,0-0.4,0-0.6-0.1s-0.7-0.1-1.3-0.2
			s-1.5-0.3-2.6-0.5s-2.7-0.4-4.6-0.7v0.6c0,4.3-0.4,8.1-1.1,11.6s-1.7,6.5-2.9,8.9s-2.6,4.4-4.1,5.7s-3.2,2-4.8,2
			c-1.3,0-2.4-0.3-3.3-1s-1.6-1.5-2.1-2.7s-0.9-2.4-1.1-3.9c-0.2-1.5-0.3-3.1-0.3-4.7c0-1,0.2-2,0.5-3.3c0.3-1.2,0.7-2.5,1.2-3.8
			c0.5-1.3,1.1-2.7,1.7-4c0.6-1.4,1.3-2.7,2-4c1.6-3,3.4-6.1,5.4-9.3c0.3-1.8,0.5-3.7,0.8-5.6s0.6-3.8,1-5.6s0.9-3.5,1.5-5.1
			s1.4-3,2.4-4.2s2.1-2.1,3.5-2.8s3-1.1,4.9-1.1c1.4,0,2.8,0.2,4,0.6s2.3,1,3.3,1.9s1.7,2,2.2,3.4s0.8,3.1,0.8,5
			c0,1.6-0.2,3.1-0.7,4.6s-1.2,2.9-2.2,4.3s-2.3,2.6-3.8,3.8s-3.4,2.2-5.5,3.2L205.1,180.7z M188.4,202.5c0,0.2,0,0.5,0.1,0.9
			s0.2,0.8,0.4,1.3s0.4,0.8,0.7,1.1s0.7,0.5,1.1,0.5c0.4,0,0.7-0.2,1-0.7s0.5-1,0.6-1.7s0.3-1.5,0.4-2.5s0.1-1.9,0.2-2.8
			s0.1-1.9,0.1-2.8s0-1.7,0.1-2.5c0.1-1.3,0.1-2.3,0.2-3.2s0.1-1.6,0.1-2.2c0-0.7,0-1.2,0.1-1.7c-0.4,0.8-0.9,1.7-1.3,2.7
			s-0.8,2.1-1.2,3.2s-0.7,2.2-1,3.3s-0.6,2.1-0.8,3.1s-0.4,1.8-0.5,2.5S188.4,202.2,188.4,202.5z M200.7,177.2
			c1.4-0.7,2.6-1.5,3.6-2.4s1.9-1.8,2.6-2.8s1.3-2,1.8-3.1s0.8-2.1,1.1-3.2c0.1-0.5,0.2-1.1,0.2-1.8s0-1.3-0.2-2s-0.5-1.1-0.9-1.6
			s-1-0.7-1.8-0.7c-0.9,0-1.6,0.2-2.3,0.7s-1.2,1.1-1.7,2s-0.9,1.8-1.2,2.9s-0.6,2.3-0.8,3.6s-0.3,2.6-0.4,4
			S200.7,175.8,200.7,177.2z"/>
		<path class="st2" d="M219.7,173.5c1.3-1.1,2.4-2.1,3.2-2.8s1.5-1.4,2.1-2.1s1.1-1.2,1.6-1.9s1-1.4,1.7-2.3s1.5-1.9,2.4-3.2
			s2.2-2.8,3.7-4.7c0.3-0.4,0.6-0.8,1-1.2s0.8-0.8,1.2-1.1s1-0.6,1.5-0.8s1.2-0.3,1.8-0.3c1.1,0,2,0.1,2.6,0.4s1.1,0.5,1.3,0.9
			s0.4,0.7,0.5,1.1s0.1,0.7,0.1,1c0,0.6-0.2,1.2-0.7,1.9s-0.9,1.3-1.5,2s-1,1.2-1.5,1.7s-0.8,0.9-0.8,1.2c0,0.7,0.1,1.4,0.2,2
			s0.2,1.2,0.4,1.8s0.4,1.2,0.5,1.8s0.4,1.4,0.5,2.2s0.3,1.8,0.4,2.9s0.2,2.4,0.2,3.9c0.8-0.6,1.8-1.1,2.7-1.5s2-0.9,3-1.4
			s2.1-1,3.3-1.6s2.2-1.3,3.4-2.2l0,7.9c-1.5,1.1-3.1,2.2-5,3.2s-3.9,1.9-6,2.6s-4.2,1.3-6.4,1.8s-4.2,0.7-6.1,0.7
			c-1.4,0-2.7-0.1-3.9-0.4s-2.2-0.7-3.1-1.2s-1.6-1.3-2.2-2.2s-0.9-2-1-3.2c-0.3,0.1-0.7,0.1-1,0.1s-0.6,0-0.9,0c-0.4,0-0.7,0-1.1,0
			s-0.6-0.1-0.8-0.3s-0.4-0.4-0.6-0.7s-0.2-0.8-0.2-1.5c0-0.6,0.1-1.1,0.4-1.6s0.6-0.9,1-1.3s0.8-0.7,1.1-1S219.5,173.7,219.7,173.5
			z M224.2,178c0.3,0,0.6,0.2,0.9,0.5s0.7,0.7,1.2,1.2s1,0.8,1.5,1.2s1.3,0.5,2,0.5c0.9,0,1.7-0.2,2.3-0.5s1.1-0.7,1.4-1.2
			s0.6-1.1,0.7-1.8s0.2-1.4,0.2-2.1c0-0.6,0-1.3-0.1-1.9s-0.2-1.3-0.3-1.9s-0.3-1.2-0.4-1.7s-0.3-1-0.4-1.4L224.2,178z"/>
		<path class="st2" d="M269.2,160c0.2-0.8,0.5-1.5,1-2.1s1-1.1,1.7-1.6s1.3-0.7,2-0.9s1.3-0.3,1.9-0.3c0.7,0,1.3,0.2,1.8,0.5
			s0.7,0.8,0.7,1.5c0,0.2,0,0.5-0.1,0.7c-0.1,0.6-0.3,1.4-0.5,2.5s-0.4,2.3-0.7,3.6s-0.5,2.7-0.8,4.2s-0.5,3-0.7,4.4
			c-0.6,3.5-1.2,7.2-1.8,11.2c0.7-0.4,1.5-0.9,2.3-1.5s1.7-1.4,2.7-2.4s2.1-2.2,3.4-3.7s2.6-3.3,4.2-5.6l1.7,7.8
			c-0.4,0.7-1,1.5-1.6,2.2s-1.4,1.5-2.2,2.3s-1.7,1.5-2.5,2.2s-1.7,1.4-2.6,2c-2,1.5-4.1,3-6.4,4.4c-0.4,2.5-1,5-1.6,7.3
			s-1.3,4.6-2.2,6.7s-1.8,4-2.8,5.7s-2.3,3.2-3.6,4.5s-2.9,2.2-4.5,2.9s-3.5,1-5.5,1c-0.8,0-1.7-0.1-2.6-0.2s-1.8-0.5-2.6-1
			s-1.4-1.2-2-2.1s-0.8-2.1-0.8-3.7c0-1.1,0.3-2.2,0.8-3.6s1.3-2.7,2.2-4.2s2.1-3,3.3-4.6s2.7-3.2,4.2-4.7s3.1-3.1,4.7-4.6
			s3.3-3,5-4.4l0.9-3.3c-1.3,1.1-2.6,2-4,2.7s-2.7,1-4,1c-1.1,0-2.2-0.2-3.3-0.7s-2-1.1-2.8-2s-1.5-1.9-2-3.1s-0.7-2.6-0.7-4.2
			c0-2,0.1-3.9,0.3-5.6s0.5-3.3,0.9-4.9s0.8-3,1.4-4.5s1.2-2.9,1.9-4.4c0.5-1.1,1.3-1.9,2.3-2.4s2-0.8,3-0.8c0.8,0,1.5,0.2,2.1,0.6
			s0.9,1,0.9,1.9c0,0.3,0,0.5-0.1,0.8s-0.2,0.6-0.3,1c-0.4,1.1-0.8,2.3-1.2,3.8s-0.8,3-1.1,4.5s-0.6,3-0.8,4.5s-0.3,2.8-0.3,3.9
			c0,0.6,0,1.2,0.1,1.7s0.2,1,0.4,1.5s0.5,0.8,0.8,1.1s0.8,0.4,1.3,0.4c0.9,0,1.7-0.4,2.4-1.1s1.3-1.7,1.8-2.7s0.9-2.1,1.2-3.3
			s0.5-2.1,0.6-2.8L269.2,160z M252.7,212.9c1,0,1.9-0.3,2.8-0.9s1.7-1.3,2.4-2.3s1.4-2,2-3.2s1.1-2.4,1.6-3.7s0.9-2.5,1.2-3.7
			s0.6-2.3,0.8-3.2c-0.9,0.6-1.8,1.3-2.8,2.2s-1.9,1.8-2.8,2.7s-1.8,2-2.6,3s-1.5,2-2.1,3s-1.1,1.8-1.4,2.7s-0.5,1.5-0.5,2
			C251.3,212.4,251.8,212.9,252.7,212.9z"/>
	</g>
</g>
</svg>
