<?xml version="1.0" encoding="utf-8"?>
<!-- Generator: Adobe Illustrator 21.1.0, SVG Export Plug-In . SVG Version: 6.00 Build 0)  -->
<svg version="1.1" id="Group_12" xmlns="http://www.w3.org/2000/svg" xmlns:xlink="http://www.w3.org/1999/xlink" x="0px" y="0px"
	 viewBox="0 0 371 317" style="enable-background:new 0 0 371 317;" xml:space="preserve">
<style type="text/css">
	.st0{fill:#222222;}
	.st1{fill:#FFFFFF;}
</style>
<path id="Rectangle_7" class="st0" d="M5,0h361c2.8,0,5,2.2,5,5v307c0,2.8-2.2,5-5,5H5c-2.8,0-5-2.2-5-5V5C0,2.2,2.2,0,5,0z"/>
<g>
	<path class="st1" d="M151.8,184.2h11.3v-56h-11.3V123h29.5c19.8,0,24.7,7.5,24.7,16c0,5.4-3.6,13-16.7,15.3v0.3
		c13.4,1,19.9,7.9,19.9,16c0,9.6-5.6,18.9-27.7,18.9h-29.6V184.2z M181.8,152.1c10.7,0,15-5,15-12.9c0-6.9-3.4-11-14.6-11h-10.5
		v23.9H181.8z M181.9,184.2c13,0,18-4.3,18-14.2c0-7.8-5.7-13.1-18.4-13.1h-9.8v27.2H181.9z"/>
</g>
</svg>
