<?xml version="1.0" encoding="utf-8"?>
<!-- Generator: Adobe Illustrator 21.1.0, SVG Export Plug-In . SVG Version: 6.00 Build 0)  -->
<svg version="1.1" id="Layer_1" xmlns="http://www.w3.org/2000/svg" xmlns:xlink="http://www.w3.org/1999/xlink" x="0px" y="0px"
	 viewBox="0 0 1600 245" style="enable-background:new 0 0 1600 245;" xml:space="preserve">
<style type="text/css">
	.st0{fill:#FFFFFF;}
</style>
<g id="layer101">
	<path class="st0" d="M-745.6,566.5c0.2-36.8,0.6-67.3,1.1-67.7c-1.4-2.1,5.1,1.3,10.5,3.9c14.6,6.9,23.2,10.7,24.1,10.7
		c0.5,0,3.9,1.3,7.7,2.9c15.9,6.6,60.1,20.6,74.9,23.6c3.3,0.7,10.7,2.4,16.5,3.8c26.7,6.6,71.8,14.1,103.5,17.2
		c8.8,0.9,23,2.3,31.5,3.2c24.1,2.4,117.7,3,147,0.9c101.2-7,198.1-23.3,287.7-48.2c6.7-1.9,12.8-3.4,13.4-3.4
		c0.7,0,6.4-1.6,12.8-3.5c6.4-2,16.3-5,22.1-6.7c19.1-5.6,55.6-17.3,75.5-24.3c11.1-3.8,20.4-7.2,53-19c7.2-2.6,15.2-5.4,18-6.1
		c2.7-0.8,7.9-2.5,11.5-3.8c6.1-2.2,13.5-4.5,42-13c18-5.4,53.2-14.6,75-19.5c30.9-7,75.4-15.5,90.4-17.2c4.9-0.5,14.4-1.9,21.2-3
		c6.7-1.1,17.4-2.4,23.6-2.8c6.2-0.5,18.3-1.6,26.8-2.4c36.7-3.6,117.3-4.9,164-2.7c53.8,2.6,110.2,10.2,160,21.6
		c29.1,6.6,63.7,16.8,83.8,24.5l2.2,0.9v98.5v98.5H54.1h-800L-745.6,566.5z"/>
	<path class="st0" d="M1867.8,633.4h-800H267.7v-98.5v-98.5l2.2-0.9c20.1-7.7,54.7-17.9,83.8-24.5c49.8-11.4,106.2-19,160-21.6
		c46.7-2.2,127.3-0.9,164,2.7c8.5,0.8,20.6,1.9,26.8,2.4c6.2,0.4,16.9,1.7,23.6,2.8c6.8,1.1,16.3,2.5,21.2,3
		c15,1.7,59.5,10.2,90.4,17.2c21.8,4.9,57,14.1,75,19.5c28.5,8.5,35.9,10.8,42,13c3.6,1.3,8.8,3,11.5,3.8c2.8,0.7,10.8,3.5,18,6.1
		c32.6,11.8,41.9,15.2,53,19c19.9,7,56.4,18.7,75.5,24.3c5.8,1.7,15.7,4.7,22.1,6.7c6.4,1.9,12.1,3.5,12.8,3.5
		c0.6,0,6.7,1.5,13.4,3.4c89.6,24.9,186.5,41.2,287.7,48.2c29.3,2.1,122.9,1.5,147-0.9c8.5-0.9,22.7-2.3,31.5-3.2
		c31.7-3.1,76.8-10.6,103.5-17.2c5.8-1.4,13.2-3.1,16.5-3.8c14.8-3,59-17,74.9-23.6c3.8-1.6,7.2-2.9,7.7-2.9
		c0.9,0,9.5-3.8,24.1-10.7c5.4-2.6,10.1-4.3,10.5-3.9c0.5,0.4,0.9,30.9,1.1,67.7L1867.8,633.4z"/>
</g>
</svg>
