<!DOCTYPE svg PUBLIC "-//W3C//DTD SVG 20010904//EN" "http://www.w3.org/TR/2001/REC-SVG-20010904/DTD/svg10.dtd">
<svg version="1.0" xmlns="http://www.w3.org/2000/svg" width="1600px" height="245px" viewBox="0 0 16000 2450" preserveAspectRatio="xMidYMid meet">
<g id="layer101" fill="#ffffff" stroke="none">
 <path d="M2 1781 c2 -368 6 -673 11 -677 4 -4 51 13 105 39 146 69 232 107 241 107 5 0 39 13 77 29 159 66 601 206 749 236 33 7 107 24 165 38 267 66 718 141 1035 172 88 9 230 23 315 32 241 24 1177 30 1470 9 1012 -70 1981 -233 2877 -482 67 -19 128 -34 134 -34 7 0 64 -16 128 -35 64 -20 163 -50 221 -67 191 -56 556 -173 755 -243 111 -38 204 -72 530 -190 72 -26 152 -54 180 -61 27 -8 79 -25 115 -38 61 -22 135 -45 420 -130 180 -54 532 -146 750 -195 309 -70 754 -155 904 -172 49 -5 144 -19 212 -30 67 -11 174 -24 236 -28 62 -5 183 -16 268 -24 367 -36 1173 -49 1640 -27 538 26 1102 102 1600 216 291 66 637 168 838 245 l22 9 0 985 0 985 -8001 0 -8000 0 3 -669z"/>
 </g>

</svg>